<svg width="31" height="29" viewBox="0 0 31 29" fill="none" xmlns="http://www.w3.org/2000/svg">
<g clip-path="url(#clip0_948_3035)">
<path d="M23.6899 5.33333L22.1199 3.29778C21.8071 2.89534 21.4069 2.56935 20.9495 2.3445C20.4921 2.11966 19.9896 2.00185 19.4799 2L15.1866 2C14.6769 2.00185 14.1743 2.11966 13.7169 2.3445C13.2595 2.56935 12.8593 2.89534 12.5466 3.29778L10.9766 5.33333H23.6899Z" fill="black"/>
<path d="M17.3331 22.0002C19.7877 22.0002 21.7776 20.0104 21.7776 17.5558C21.7776 15.1012 19.7877 13.1113 17.3331 13.1113C14.8785 13.1113 12.8887 15.1012 12.8887 17.5558C12.8887 20.0104 14.8785 22.0002 17.3331 22.0002Z" fill="black"/>
<path d="M25.1111 7.55566H9.55555C8.08267 7.55743 6.67062 8.14331 5.62913 9.1848C4.58765 10.2263 4.00176 11.6383 4 13.1112L4 23.1112C4.00176 24.5841 4.58765 25.9962 5.62913 27.0377C6.67062 28.0791 8.08267 28.665 9.55555 28.6668H25.1111C26.584 28.665 27.996 28.0791 29.0375 27.0377C30.079 25.9962 30.6649 24.5841 30.6667 23.1112V13.1112C30.6649 11.6383 30.079 10.2263 29.0375 9.1848C27.996 8.14331 26.584 7.55743 25.1111 7.55566V7.55566ZM17.3333 24.2223C16.0148 24.2223 14.7259 23.8313 13.6295 23.0988C12.5332 22.3663 11.6787 21.3251 11.1741 20.1069C10.6695 18.8887 10.5375 17.5483 10.7948 16.2551C11.052 14.9619 11.6869 13.774 12.6193 12.8416C13.5516 11.9093 14.7395 11.2743 16.0327 11.0171C17.3259 10.7599 18.6664 10.8919 19.8845 11.3965C21.1027 11.9011 22.1439 12.7555 22.8765 13.8519C23.609 14.9482 24 16.2371 24 17.5557C23.9982 19.3232 23.2953 21.0179 22.0454 22.2678C20.7956 23.5176 19.1009 24.2206 17.3333 24.2223V24.2223Z" fill="black"/>
</g>
<path d="M6.41667 2.91667H4.08333V0.583333C4.08333 0.428624 4.02187 0.280251 3.91248 0.170854C3.80308 0.0614583 3.65471 0 3.5 0C3.34529 0 3.19692 0.0614583 3.08752 0.170854C2.97812 0.280251 2.91667 0.428624 2.91667 0.583333V2.91667H0.583333C0.428624 2.91667 0.280251 2.97812 0.170854 3.08752C0.0614583 3.19692 0 3.34529 0 3.5C0 3.65471 0.0614583 3.80308 0.170854 3.91248C0.280251 4.02187 0.428624 4.08333 0.583333 4.08333H2.91667V6.41667C2.91667 6.57138 2.97812 6.71975 3.08752 6.82915C3.19692 6.93854 3.34529 7 3.5 7C3.65471 7 3.80308 6.93854 3.91248 6.82915C4.02187 6.71975 4.08333 6.57138 4.08333 6.41667V4.08333H6.41667C6.57138 4.08333 6.71975 4.02187 6.82915 3.91248C6.93854 3.80308 7 3.65471 7 3.5C7 3.34529 6.93854 3.19692 6.82915 3.08752C6.71975 2.97812 6.57138 2.91667 6.41667 2.91667Z" fill="black"/>
<defs>
<clipPath id="clip0_948_3035">
<rect width="26.6667" height="26.6667" fill="white" transform="translate(4 2)"/>
</clipPath>
</defs>
</svg>
