<svg width="15" height="15" viewBox="0 0 15 15" fill="none" xmlns="http://www.w3.org/2000/svg">
<g clip-path="url(#clip0_651_2351)">
<path d="M8.33625 0.520141C8.10671 0.313538 7.80882 0.199219 7.5 0.199219C7.19117 0.199219 6.89328 0.313538 6.66375 0.520141L0 6.51764V13.0176C0 13.5481 0.210714 14.0568 0.585786 14.4318C0.960859 14.8069 1.46957 15.0176 2 15.0176H13C13.5304 15.0176 14.0391 14.8069 14.4142 14.4318C14.7893 14.0568 15 13.5481 15 13.0176V6.51764L8.33625 0.520141ZM9.375 13.7658H5.625V10.6245C5.625 10.1272 5.82254 9.65032 6.17417 9.29869C6.5258 8.94706 7.00272 8.74951 7.5 8.74951C7.99728 8.74951 8.47419 8.94706 8.82582 9.29869C9.17745 9.65032 9.375 10.1272 9.375 10.6245V13.7658ZM13.75 13.0158C13.75 13.2147 13.671 13.4054 13.5303 13.5461C13.3897 13.6867 13.1989 13.7658 13 13.7658H10.625V10.6245C10.625 9.79571 10.2958 9.00085 9.70971 8.4148C9.12365 7.82875 8.3288 7.49951 7.5 7.49951C6.6712 7.49951 5.87634 7.82875 5.29029 8.4148C4.70424 9.00085 4.375 9.79571 4.375 10.6245V13.7658H2C1.80109 13.7658 1.61032 13.6867 1.46967 13.5461C1.32902 13.4054 1.25 13.2147 1.25 13.0158V7.07389L7.5 1.44889L13.75 7.07389V13.0158Z" fill="black"/>
</g>
<defs>
<clipPath id="clip0_651_2351">
<rect width="15" height="15" fill="white"/>
</clipPath>
</defs>
</svg>
