<svg width="15" height="15" viewBox="0 0 15 15" fill="none" xmlns="http://www.w3.org/2000/svg">
<g clip-path="url(#clip0_651_2357)">
<path d="M12.4999 5C11.8368 5 11.2009 4.73661 10.7321 4.26777C10.2632 3.79892 9.99985 3.16304 9.99985 2.5C9.99985 1.83696 10.2632 1.20107 10.7321 0.732233C11.2009 0.263392 11.8368 0 12.4999 0C13.1629 0 13.7988 0.263392 14.2676 0.732233C14.7365 1.20107 14.9999 1.83696 14.9999 2.5C14.9999 3.16304 14.7365 3.79892 14.2676 4.26777C13.7988 4.73661 13.1629 5 12.4999 5ZM12.4999 1.25C12.1683 1.25 11.8504 1.3817 11.616 1.61612C11.3816 1.85054 11.2499 2.16848 11.2499 2.5C11.2499 2.83152 11.3816 3.14946 11.616 3.38388C11.8504 3.6183 12.1683 3.75 12.4999 3.75C12.8314 3.75 13.1493 3.6183 13.3837 3.38388C13.6182 3.14946 13.7499 2.83152 13.7499 2.5C13.7499 2.16848 13.6182 1.85054 13.3837 1.61612C13.1493 1.3817 12.8314 1.25 12.4999 1.25ZM13.4074 15H7.86798C7.58777 15.0025 7.31187 14.931 7.06814 14.7927C6.82442 14.6544 6.62149 14.4543 6.47985 14.2125C6.34105 13.9795 6.26627 13.7139 6.26309 13.4427C6.2599 13.1715 6.32843 12.9043 6.46172 12.6681L9.23423 7.69375C9.37699 7.4472 9.58206 7.24253 9.82888 7.10024C10.0757 6.95795 10.3556 6.88305 10.6405 6.88305C10.9254 6.88305 11.2053 6.95795 11.4521 7.10024C11.6989 7.24253 11.904 7.4472 12.0467 7.69375L14.8124 12.6644C14.9459 12.9009 15.0146 13.1685 15.0115 13.4402C15.0085 13.7118 14.9337 13.9778 14.7949 14.2112C14.6533 14.453 14.4505 14.6533 14.2069 14.7917C13.9633 14.9302 13.6875 15.002 13.4074 15ZM10.6392 8.125C10.576 8.1235 10.5136 8.13916 10.4586 8.1703C10.4035 8.20145 10.358 8.24691 10.3267 8.30187L7.55423 13.2762C7.52743 13.3224 7.51363 13.375 7.51429 13.4283C7.51495 13.4817 7.53005 13.5339 7.55798 13.5794C7.58999 13.6332 7.63588 13.6775 7.69086 13.7075C7.74584 13.7375 7.80788 13.7522 7.87048 13.75H13.4099C13.4725 13.7519 13.5346 13.7369 13.5895 13.7067C13.6445 13.6764 13.6904 13.6321 13.7224 13.5781C13.7498 13.5319 13.7643 13.4791 13.7643 13.4253C13.7643 13.3715 13.7498 13.3187 13.7224 13.2725L10.9524 8.3025C10.9212 8.24723 10.8756 8.20151 10.8205 8.17023C10.7653 8.13895 10.7026 8.12331 10.6392 8.125ZM4.99985 14.375C4.99985 14.2092 4.934 14.0503 4.81679 13.9331C4.69958 13.8158 4.54061 13.75 4.37485 13.75H2.09359C1.94743 13.7499 1.8038 13.7118 1.67679 13.6395C1.54978 13.5671 1.44377 13.463 1.36914 13.3373C1.29452 13.2117 1.25385 13.0687 1.25112 12.9226C1.24839 12.7765 1.2837 12.6321 1.35359 12.5037L5.5111 4.81625C5.5822 4.68225 5.68865 4.57029 5.81888 4.4925C5.94911 4.41472 6.09816 4.37408 6.24985 4.375C6.40169 4.37376 6.55095 4.41425 6.68134 4.49207C6.81173 4.56988 6.91823 4.68202 6.98922 4.81625L7.7561 6.23312C7.79517 6.30535 7.84808 6.36917 7.91182 6.42095C7.97555 6.47273 8.04886 6.51145 8.12756 6.53489C8.20625 6.55834 8.2888 6.56606 8.37048 6.5576C8.45216 6.54915 8.53137 6.52469 8.6036 6.48562C8.67583 6.44655 8.73965 6.39364 8.79143 6.32991C8.84321 6.26617 8.88193 6.19286 8.90538 6.11417C8.92882 6.03547 8.93654 5.95292 8.92808 5.87124C8.91963 5.78956 8.89517 5.71035 8.8561 5.63812L8.08985 4.22187C7.91075 3.89015 7.64525 3.61305 7.3215 3.41992C6.99774 3.22679 6.62777 3.12482 6.25079 3.12482C5.8738 3.12482 5.50383 3.22679 5.18008 3.41992C4.85632 3.61305 4.59082 3.89015 4.41172 4.22187L0.253589 11.9094C0.0811535 12.2282 -0.0055667 12.5864 0.00191052 12.9488C0.00938774 13.3112 0.110806 13.6655 0.296246 13.977C0.481687 14.2885 0.744798 14.5465 1.05985 14.7258C1.37489 14.9051 1.73109 14.9996 2.09359 15H4.37485C4.54061 15 4.69958 14.9341 4.81679 14.8169C4.934 14.6997 4.99985 14.5408 4.99985 14.375Z" fill="black" fill-opacity="0.75"/>
</g>
<defs>
<clipPath id="clip0_651_2357">
<rect width="15" height="15" fill="white"/>
</clipPath>
</defs>
</svg>
