<svg width="22" height="22" viewBox="0 0 22 22" fill="none" xmlns="http://www.w3.org/2000/svg">
<circle cx="11" cy="11" r="11" fill="white"/>
<path d="M11 1C5.47715 1 1 5.47715 1 11C1 16.5229 5.47715 21 11 21C16.5229 21 21 16.5229 21 11C20.994 5.47961 16.5204 1.00598 11 1ZM14.3333 13.1558C14.672 13.4675 14.6938 13.9947 14.3821 14.3333C14.0705 14.672 13.5433 14.6938 13.2046 14.3821C13.1877 14.3666 13.1714 14.3503 13.1558 14.3333L11 12.1783L8.845 14.3333C8.51395 14.653 7.98641 14.6439 7.66668 14.3128C7.3548 13.9899 7.3548 13.4779 7.66668 13.155L9.82168 11L7.66668 8.845C7.34695 8.51395 7.35613 7.98641 7.68719 7.66668C8.01012 7.3548 8.52207 7.3548 8.845 7.66668L11 9.82168L13.1558 7.66668C13.4675 7.32805 13.9947 7.30617 14.3333 7.61785C14.672 7.92953 14.6938 8.45672 14.3821 8.79535C14.3666 8.8123 14.3503 8.82855 14.3333 8.84418L12.1783 11L14.3333 13.1558Z" fill="#979797"/>
</svg>
