<svg width="15" height="15" viewBox="0 0 15 15" fill="none" xmlns="http://www.w3.org/2000/svg">
<g clip-path="url(#clip0_651_2342)">
<path d="M13.4123 2.58375C13.2859 1.85953 12.9079 1.20319 12.3449 0.730485C11.7818 0.257781 11.0699 -0.000922179 10.3348 3.60947e-06H4.65665C3.92092 -0.00111502 3.20846 0.257808 2.64511 0.731039C2.08176 1.20427 1.70377 1.86136 1.5779 2.58625L0.047279 11.3362C-0.0313235 11.7854 -0.0107028 12.2462 0.107694 12.6865C0.226091 13.1268 0.439397 13.5358 0.732645 13.885C1.02589 14.2341 1.39198 14.5148 1.80522 14.7074C2.21846 14.9 2.66885 14.9999 3.12478 15H11.8748C12.331 15 12.7817 14.9002 13.1953 14.7075C13.6088 14.5147 13.9751 14.2338 14.2685 13.8844C14.5618 13.535 14.7751 13.1256 14.8934 12.6849C15.0116 12.2443 15.0319 11.7831 14.9529 11.3337L13.4123 2.58375ZM13.3123 13.0806C13.1361 13.2904 12.9161 13.4591 12.6678 13.5748C12.4194 13.6904 12.1487 13.7502 11.8748 13.75H3.12478C2.85114 13.75 2.58081 13.6901 2.33278 13.5745C2.08475 13.459 1.86502 13.2905 1.68902 13.081C1.51302 12.8714 1.38502 12.6259 1.314 12.3616C1.24297 12.0974 1.23066 11.8208 1.2779 11.5512L2.80853 2.80125C2.88474 2.36652 3.11186 1.97261 3.44992 1.68886C3.78798 1.4051 4.2153 1.2497 4.65665 1.25H10.3348C10.7756 1.25009 11.2024 1.40552 11.54 1.68898C11.8777 1.97245 12.1046 2.36582 12.181 2.8L13.7204 11.55C13.7682 11.8195 13.7564 12.0961 13.6859 12.3605C13.6154 12.625 13.4879 12.8707 13.3123 13.0806ZM8.12478 3.125V4.375C8.12478 4.54076 8.05893 4.69973 7.94172 4.81694C7.82451 4.93415 7.66554 5 7.49978 5C7.33402 5 7.17505 4.93415 7.05784 4.81694C6.94063 4.69973 6.87478 4.54076 6.87478 4.375V3.125C6.87478 2.95924 6.94063 2.80027 7.05784 2.68306C7.17505 2.56585 7.33402 2.5 7.49978 2.5C7.66554 2.5 7.82451 2.56585 7.94172 2.68306C8.05893 2.80027 8.12478 2.95924 8.12478 3.125ZM8.12478 6.875V8.125C8.12478 8.29076 8.05893 8.44973 7.94172 8.56694C7.82451 8.68415 7.66554 8.75 7.49978 8.75C7.33402 8.75 7.17505 8.68415 7.05784 8.56694C6.94063 8.44973 6.87478 8.29076 6.87478 8.125V6.875C6.87478 6.70924 6.94063 6.55027 7.05784 6.43306C7.17505 6.31585 7.33402 6.25 7.49978 6.25C7.66554 6.25 7.82451 6.31585 7.94172 6.43306C8.05893 6.55027 8.12478 6.70924 8.12478 6.875ZM8.12478 10.625V11.875C8.12478 12.0408 8.05893 12.1997 7.94172 12.3169C7.82451 12.4341 7.66554 12.5 7.49978 12.5C7.33402 12.5 7.17505 12.4341 7.05784 12.3169C6.94063 12.1997 6.87478 12.0408 6.87478 11.875V10.625C6.87478 10.4592 6.94063 10.3003 7.05784 10.1831C7.17505 10.0658 7.33402 10 7.49978 10C7.66554 10 7.82451 10.0658 7.94172 10.1831C8.05893 10.3003 8.12478 10.4592 8.12478 10.625Z" fill="black"/>
</g>
<defs>
<clipPath id="clip0_651_2342">
<rect width="15" height="15" fill="white"/>
</clipPath>
</defs>
</svg>
