<svg width="40" height="24" viewBox="0 0 40 24" fill="none" xmlns="http://www.w3.org/2000/svg">
<path d="M31.8697 22.6564L38.4014 16.1248C39.462 15.0133 40.0538 13.536 40.0538 11.9997C40.0538 10.4634 39.462 8.98618 38.4014 7.87474L31.8697 1.34306C31.401 0.874073 30.7651 0.610508 30.102 0.610352C29.4389 0.610195 28.8029 0.873461 28.3339 1.34223C27.8649 1.811 27.6014 2.44688 27.6012 3.10998C27.601 3.77308 27.8643 4.40908 28.3331 4.87807L32.9664 9.51308L2.5498 9.55141C1.88676 9.55141 1.25088 9.8148 0.782036 10.2836C0.313196 10.7525 0.0498047 11.3884 0.0498047 12.0514C0.0498047 12.7145 0.313196 13.3503 0.782036 13.8192C1.25088 14.288 1.88676 14.5514 2.5498 14.5514L32.9347 14.5131L28.3331 19.1214C27.8777 19.5929 27.6257 20.2244 27.6314 20.8799C27.6371 21.5354 27.9 22.1625 28.3635 22.626C28.8271 23.0895 29.4541 23.3524 30.1096 23.3581C30.7651 23.3638 31.3966 23.1118 31.8681 22.6564H31.8697Z" fill="black"/>
</svg>
