<svg width="30" height="30" viewBox="0 0 30 30" fill="none" xmlns="http://www.w3.org/2000/svg">
<rect x="0.5" y="0.5" width="29" height="29" rx="4.5" fill="white" stroke="black"/>
<g clip-path="url(#clip0_659_5108)">
<path d="M20.625 22.4375L18.3356 20.8681L16.6706 22.0087L15.0044 20.8675L13.3381 22.0075L11.6687 20.8662L9.375 22.4375V9.375C9.375 8.87772 9.57254 8.40081 9.92417 8.04917C10.2758 7.69754 10.7527 7.5 11.25 7.5H18.75C19.2473 7.5 19.7242 7.69754 20.0758 8.04917C20.4274 8.40081 20.625 8.87772 20.625 9.375V22.4375ZM11.6687 19.3512L13.3375 20.4925L15.0044 19.3512L16.6706 20.4925L18.3362 19.3506L19.375 20.0625V9.375C19.375 9.20924 19.3091 9.05027 19.1919 8.93306C19.0747 8.81585 18.9158 8.75 18.75 8.75H11.25C11.0842 8.75 10.9253 8.81585 10.8081 8.93306C10.6908 9.05027 10.625 9.20924 10.625 9.375V20.0625L11.6687 19.3512Z" fill="black"/>
<path d="M18.125 12.5H11.875V13.75H18.125V12.5Z" fill="black"/>
<path d="M16.875 15H11.875V16.25H16.875V15Z" fill="black"/>
</g>
<defs>
<clipPath id="clip0_659_5108">
<rect width="15" height="15" fill="white" transform="translate(7.5 7.5)"/>
</clipPath>
</defs>
</svg>
