<svg width="49" height="48" viewBox="0 0 49 48" fill="none" xmlns="http://www.w3.org/2000/svg">
<path d="M24.4717 0C37.7265 0 48.4717 10.7452 48.4717 24C48.4717 37.2548 37.7265 48 24.4717 48C11.2168 48 0.47168 37.2548 0.47168 24C0.47168 10.7452 11.2168 0 24.4717 0ZM24.4717 43.2C35.0755 43.2 43.6717 34.6039 43.6717 24C43.6717 13.3961 35.0755 4.8 24.4717 4.8C13.8678 4.8 5.27168 13.3961 5.27168 24C5.27168 34.6039 13.8678 43.2 24.4717 43.2Z" fill="#61C877"/>
<rect x="0.47168" y="48" width="48" height="48" rx="24" transform="rotate(-90 0.47168 48)" fill="#C4C4C4" fill-opacity="0.1"/>
<rect x="5.27148" y="43.2002" width="38.4" height="38.4" rx="19.2" transform="rotate(-90 5.27148 43.2002)" fill="#6BC87F"/>
<path d="M31.4287 19.3047L21.8635 28.8699L17.5156 24.5221" stroke="white" stroke-width="5" stroke-linecap="round" stroke-linejoin="round"/>
</svg>
