<svg width="20" height="20" viewBox="0 0 20 20" fill="none" xmlns="http://www.w3.org/2000/svg">
<g clip-path="url(#clip0_818_3026)">
<path d="M11.7674 9.99997L19.6338 2.13447C20.1221 1.64617 20.1221 0.854486 19.6338 0.366225C19.1455 -0.122075 18.3538 -0.122075 17.8655 0.366225L9.99997 8.23254L2.13447 0.366225C1.64617 -0.122075 0.854486 -0.122075 0.366225 0.366225C-0.122036 0.854526 -0.122075 1.64621 0.366225 2.13447L8.23254 9.99997L0.366225 17.8655C-0.122075 18.3538 -0.122075 19.1455 0.366225 19.6338C0.854526 20.122 1.64621 20.1221 2.13447 19.6338L9.99997 11.7674L17.8655 19.6338C18.3538 20.1221 19.1455 20.1221 19.6337 19.6338C20.122 19.1455 20.122 18.3538 19.6337 17.8655L11.7674 9.99997Z" fill="black"/>
</g>
<defs>
<clipPath id="clip0_818_3026">
<rect width="20" height="20" fill="white"/>
</clipPath>
</defs>
</svg>
