<svg width="20" height="20" viewBox="0 0 20 20" fill="none" xmlns="http://www.w3.org/2000/svg">
<g clip-path="url(#clip0_572_1959)">
<path d="M0 15.833C0.00132321 16.9377 0.440735 17.9967 1.22185 18.7778C2.00296 19.559 3.062 19.9984 4.16667 19.9997H15.8333C16.938 19.9984 17.997 19.559 18.7781 18.7778C19.5593 17.9967 19.9987 16.9377 20 15.833V8.33301H0V15.833ZM14.1667 12.083C14.4139 12.083 14.6556 12.1563 14.8611 12.2937C15.0667 12.431 15.2269 12.6263 15.3215 12.8547C15.4161 13.0831 15.4409 13.3344 15.3926 13.5769C15.3444 13.8194 15.2254 14.0421 15.0505 14.2169C14.8757 14.3917 14.653 14.5108 14.4105 14.559C14.168 14.6072 13.9167 14.5825 13.6883 14.4879C13.4599 14.3933 13.2647 14.233 13.1273 14.0275C12.99 13.8219 12.9167 13.5802 12.9167 13.333C12.9167 13.0015 13.0484 12.6836 13.2828 12.4491C13.5172 12.2147 13.8351 12.083 14.1667 12.083ZM10 12.083C10.2472 12.083 10.4889 12.1563 10.6945 12.2937C10.9 12.431 11.0602 12.6263 11.1548 12.8547C11.2495 13.0831 11.2742 13.3344 11.226 13.5769C11.1777 13.8194 11.0587 14.0421 10.8839 14.2169C10.7091 14.3917 10.4863 14.5108 10.2439 14.559C10.0014 14.6072 9.75005 14.5825 9.52164 14.4879C9.29323 14.3933 9.09801 14.233 8.96066 14.0275C8.82331 13.8219 8.75 13.5802 8.75 13.333C8.75 13.0015 8.88169 12.6836 9.11611 12.4491C9.35053 12.2147 9.66848 12.083 10 12.083ZM5.83333 12.083C6.08056 12.083 6.32223 12.1563 6.52779 12.2937C6.73336 12.431 6.89357 12.6263 6.98818 12.8547C7.08279 13.0831 7.10754 13.3344 7.05931 13.5769C7.01108 13.8194 6.89203 14.0421 6.71721 14.2169C6.5424 14.3917 6.31967 14.5108 6.07719 14.559C5.83472 14.6072 5.58338 14.5825 5.35498 14.4879C5.12657 14.3933 4.93135 14.233 4.79399 14.0275C4.65664 13.8219 4.58333 13.5802 4.58333 13.333C4.58333 13.0015 4.71503 12.6836 4.94945 12.4491C5.18387 12.2147 5.50181 12.083 5.83333 12.083Z" fill="black"/>
<path d="M15.8333 1.66667H15V0.833333C15 0.61232 14.9122 0.400358 14.7559 0.244078C14.5996 0.0877974 14.3877 0 14.1667 0C13.9457 0 13.7337 0.0877974 13.5774 0.244078C13.4211 0.400358 13.3333 0.61232 13.3333 0.833333V1.66667H6.66667V0.833333C6.66667 0.61232 6.57887 0.400358 6.42259 0.244078C6.26631 0.0877974 6.05435 0 5.83333 0C5.61232 0 5.40036 0.0877974 5.24408 0.244078C5.0878 0.400358 5 0.61232 5 0.833333V1.66667H4.16667C3.062 1.66799 2.00296 2.1074 1.22185 2.88852C0.440735 3.66963 0.00132321 4.72867 0 5.83333L0 6.66667H20V5.83333C19.9987 4.72867 19.5593 3.66963 18.7782 2.88852C17.997 2.1074 16.938 1.66799 15.8333 1.66667Z" fill="black"/>
</g>
<defs>
<clipPath id="clip0_572_1959">
<rect width="20" height="20" fill="white"/>
</clipPath>
</defs>
</svg>
