<svg width="20" height="14" viewBox="0 0 20 14" fill="none" xmlns="http://www.w3.org/2000/svg">
<path d="M13.8889 7C13.8889 9.25677 12.1493 11.0833 10 11.0833C7.85069 11.0833 6.11111 9.25677 6.11111 7C6.11111 4.74323 7.85069 2.91667 10 2.91667C12.1493 2.91667 13.8889 4.74323 13.8889 7ZM9.44444 5.83333V8.16667H9.16667C8.86111 8.16667 8.61111 8.42917 8.61111 8.75C8.61111 9.07083 8.86111 9.33333 9.16667 9.33333H10.8333C11.1389 9.33333 11.3889 9.07083 11.3889 8.75C11.3889 8.42917 11.1389 8.16667 10.8333 8.16667H10.5556V5.25C10.5556 4.92917 10.3056 4.66667 10 4.66667H9.44444C9.13889 4.66667 8.88889 4.92917 8.88889 5.25C8.88889 5.57083 9.13889 5.83333 9.44444 5.83333ZM0 2.33333C0 1.04453 0.994792 0 2.22222 0H17.7778C19.0035 0 20 1.04453 20 2.33333V11.6667C20 12.9536 19.0035 14 17.7778 14H2.22222C0.994792 14 0 12.9536 0 11.6667V2.33333ZM1.66667 4.08333V9.91667C2.8941 9.91667 3.88889 10.963 3.88889 12.25H16.1111C16.1111 10.963 17.1076 9.91667 18.3333 9.91667V4.08333C17.1076 4.08333 16.1111 3.03698 16.1111 1.75H3.88889C3.88889 3.03698 2.8941 4.08333 1.66667 4.08333Z" fill="white"/>
</svg>
