<svg width="18" height="18" viewBox="0 0 18 18" fill="none" xmlns="http://www.w3.org/2000/svg">
<path d="M1.125 6.1875H14.1609L12.1437 8.20477C11.7042 8.64422 11.7042 9.35613 12.1437 9.79559C12.3609 10.016 12.6492 10.125 12.9375 10.125C13.2258 10.125 13.5134 10.0151 13.7327 9.79541L17.6702 5.85791C18.1097 5.41846 18.1097 4.70654 17.6702 4.26709L13.7327 0.32959C13.2933 -0.109863 12.5814 -0.109863 12.1419 0.32959C11.7025 0.769043 11.7025 1.48096 12.1419 1.92041L14.1609 3.9375H1.125C0.503086 3.9375 0 4.44059 0 5.0625C0 5.68441 0.503086 6.1875 1.125 6.1875ZM16.875 11.8125H3.84258L5.85984 9.79523C6.2993 9.35578 6.2993 8.64387 5.85984 8.20441C5.42039 7.76496 4.70848 7.76496 4.26902 8.20441L0.331523 12.1419C-0.10793 12.5814 -0.10793 13.2933 0.331523 13.7327L4.26902 17.6702C4.48594 17.891 4.77422 18 5.0625 18C5.35078 18 5.63836 17.8901 5.85773 17.6704C6.29719 17.231 6.29719 16.519 5.85773 16.0796L3.84258 14.0625H16.875C17.4969 14.0625 18 13.5594 18 12.9375C18 12.3156 17.4973 11.8125 16.875 11.8125Z" fill="white"/>
</svg>
