<svg width="18" height="18" viewBox="0 0 18 18" fill="none" xmlns="http://www.w3.org/2000/svg">
<path d="M16.8238 8.28476C16.5703 7.65026 16.2058 7.05776 15.7498 6.53951V3.75326C15.7498 3.28976 15.5413 2.85926 15.1768 2.57126C14.8183 2.28851 14.3601 2.18651 13.9161 2.29076C12.5473 2.61701 11.5206 3.39251 10.9708 4.50026H6.94856C5.01281 4.50026 3.27506 5.36876 2.13431 6.72701C1.23431 6.59576 1.34306 5.24876 2.24906 5.25026C3.22931 5.24651 3.23006 3.75401 2.24906 3.75026C-0.139687 3.74276 -0.847687 7.05476 1.29806 8.03201C-0.0211869 10.747 1.12631 14.2435 3.74906 15.691V15.7503C3.75056 18.2635 7.30406 18.8388 8.12081 16.5003H9.87806C10.6948 18.8403 14.2483 18.262 14.2498 15.7503V15.6813C15.4198 15.004 16.3281 13.9563 16.8238 12.7158C17.4396 12.5845 17.9998 12.0798 17.9998 11.2503V9.75026C17.9998 8.92076 17.4388 8.41601 16.8238 8.28476ZM13.4998 9.75026C12.5188 9.74576 12.5188 8.25476 13.4998 8.25026C14.4808 8.25476 14.4808 9.74576 13.4998 9.75026ZM4.53881 3.38426C4.11731 -0.808986 10.3438 -1.21474 10.4998 3.00026H6.94931C6.10856 3.00026 5.29931 3.13901 4.53881 3.38426Z" fill="white"/>
</svg>
