<svg width="48" height="48" viewBox="0 0 48 48" fill="none" xmlns="http://www.w3.org/2000/svg">
<path d="M24 0C37.2548 0 48 10.7452 48 24C48 37.2548 37.2548 48 24 48C10.7452 48 0 37.2548 0 24C0 10.7452 10.7452 0 24 0ZM24 43.2C34.6039 43.2 43.2 34.6039 43.2 24C43.2 13.3961 34.6039 4.8 24 4.8C13.3961 4.8 4.8 13.3961 4.8 24C4.8 34.6039 13.3961 43.2 24 43.2Z" fill="#61C877"/>
<rect x="4.80029" y="43.2002" width="38.4" height="38.4" rx="19.2" transform="rotate(-90 4.80029 43.2002)" fill="#6BC87F"/>
<path d="M30.9565 19.3047L21.3913 28.8699L17.0435 24.5221" stroke="white" stroke-width="5" stroke-linecap="round" stroke-linejoin="round"/>
</svg>
