<svg width="20" height="20" viewBox="0 0 20 20" fill="none" xmlns="http://www.w3.org/2000/svg">
<g clip-path="url(#clip0_573_1968)">
<path d="M14.37 3.48798C14.1369 3.25496 13.84 3.09629 13.5167 3.03201C13.1935 2.96773 12.8584 3.00073 12.5539 3.12685C12.2494 3.25296 11.9891 3.46653 11.806 3.74055C11.6229 4.01456 11.5251 4.33673 11.525 4.66631V5.98798H7.5C5.51155 5.99018 3.60518 6.78107 2.19913 8.18711C0.79309 9.59316 0.00220571 11.4995 0 13.488L0 19.3213C0 19.5423 0.0877974 19.7543 0.244078 19.9106C0.400358 20.0668 0.612319 20.1546 0.833333 20.1546C1.05435 20.1546 1.26631 20.0668 1.42259 19.9106C1.57887 19.7543 1.66667 19.5423 1.66667 19.3213C1.66799 17.9956 2.1952 16.7246 3.13259 15.7872C4.06999 14.8498 5.34099 14.3226 6.66666 14.3213H11.525V15.643C11.5251 15.9726 11.6229 16.2947 11.806 16.5687C11.9891 16.8428 12.2494 17.0563 12.5539 17.1824C12.8584 17.3086 13.1935 17.3416 13.5167 17.2773C13.84 17.213 14.1369 17.0543 14.37 16.8213L19.2692 11.9221C19.7378 11.4533 20.0011 10.8176 20.0011 10.1546C20.0011 9.49173 19.7378 8.85596 19.2692 8.38714L14.37 3.48798Z" fill="#FF6157" fill-opacity="0.8"/>
</g>
<defs>
<clipPath id="clip0_573_1968">
<rect width="20" height="20" fill="white"/>
</clipPath>
</defs>
</svg>
