<svg width="109" height="110" viewBox="0 0 109 110" fill="none" xmlns="http://www.w3.org/2000/svg">
<path d="M81.4743 23.6169C81.1497 23.5215 80.7944 23.5165 80.4519 23.5153C68.1053 23.4645 55.7574 23.4149 43.4108 23.3641C36.8023 23.3369 30.6271 23.8857 25.9113 29.0006C21.7272 33.5395 19.584 40.027 20.6639 46.1528C21.97 53.5619 28.0673 59.9639 35.454 61.3489C37.7697 61.7825 40.1442 61.7565 42.4983 61.6821C43.6523 61.645 44.8332 61.5917 45.9016 61.1532C46.9201 60.7345 47.7687 59.9937 48.5956 59.2665C52.9062 55.4758 57.2168 51.6852 61.5275 47.8933C61.9837 47.4919 62.4745 46.8279 62.0975 46.351C61.7499 45.91 61.0495 46.1453 60.5562 46.4154C58.5702 47.5068 56.583 48.5969 54.597 49.6883C53.9094 50.0661 52.7388 50.2284 52.6263 49.4529C52.5586 48.9883 53.0251 48.5535 52.9126 48.0977C52.7937 47.6182 52.1675 47.5167 51.6729 47.5142C48.3732 47.4944 45.0722 47.4733 41.7724 47.4535C39.9845 47.4423 38.1416 47.4213 36.4943 46.7238C34.847 46.0277 33.4259 44.4779 33.4438 42.6867C33.4617 40.9127 34.8866 39.4002 36.525 38.7238C38.1634 38.0474 39.9883 38.0363 41.7596 38.035C51.8787 38.0264 61.9978 38.0177 72.1169 38.009C73.46 38.0078 74.8441 37.9991 76.0812 37.4751C77.0755 37.0539 77.9061 36.328 78.7164 35.6145C83.3261 31.5587 87.9345 27.5029 92.5442 23.4471C92.7384 23.2762 92.9429 23.0867 92.9889 22.8315C93.0643 22.4115 92.6375 22.0386 92.2132 22.004C91.7889 21.9693 91.3851 22.1687 91.0055 22.3632C88.5735 23.6119 86.1402 24.8594 83.7082 26.108C83.3197 26.3075 82.8992 26.5131 82.4647 26.4561C82.0315 26.3992 81.6251 25.9495 81.7861 25.5419C81.8794 25.3041 82.1261 25.1604 82.2513 24.9362C82.4788 24.5298 82.213 23.991 81.8104 23.7581C81.7018 23.6961 81.5893 23.6503 81.4743 23.6169Z" fill="url(#paint0_linear_416_498)"/>
<path d="M49.7611 62.4605C49.8761 62.2561 50.0307 62.0628 50.1931 61.9229C53.0749 59.4391 55.8826 56.8154 58.8616 54.4493C61.1671 52.6196 63.1378 50.0132 65.7832 48.6716C67.7321 47.6831 69.9903 47.5431 72.1757 47.5245C75.6773 47.496 79.2621 47.7537 82.4788 49.1386C87.1997 51.1715 90.7218 55.5939 92.0624 60.5614C93.403 65.529 92.6567 70.9486 90.4125 75.5767C88.9198 78.6551 86.7115 81.477 83.7363 83.1618C79.8397 85.3693 75.1291 85.4089 70.651 85.3903C57.3613 85.3346 44.0715 85.2801 30.7817 85.2243C31.4501 84.8453 31.0731 83.6907 30.3421 83.4541C29.6111 83.2175 28.8328 83.5669 28.144 83.9088C25.5369 85.1996 22.9311 86.4904 20.324 87.7812C19.9432 87.9695 19.432 88.1392 19.1406 87.8295C18.7751 87.4418 19.193 86.8323 19.5891 86.4755C23.1637 83.2733 26.7395 80.071 30.314 76.8688C32.415 74.9871 34.5863 73.062 37.2381 72.1056C39.9308 71.1344 42.8753 71.2484 45.7367 71.3475C55.1925 71.6745 64.6598 71.7006 74.1169 71.4268C75.3898 71.3896 76.7662 71.3103 77.7464 70.4952C78.7969 69.6219 79.0985 68.1366 79.1343 66.769C79.1778 65.1425 78.8544 63.3475 77.5943 62.3205C76.4122 61.3567 74.7495 61.3307 73.2262 61.3505C69.5443 61.3989 65.8624 61.4472 62.1806 61.4955C61.677 61.5017 61.1441 61.5004 60.716 61.2378C60.2879 60.974 60.0425 60.3459 60.3556 59.952C60.5422 59.7166 60.8847 59.6076 60.9946 59.3276C61.1326 58.9783 60.7837 58.5918 60.4105 58.5435C60.0374 58.4951 59.6783 58.6723 59.3434 58.8457C56.4386 60.3484 53.535 61.8498 50.6301 63.3524C50.3937 63.4751 50.1202 63.6002 49.8723 63.5048C49.4646 63.3475 49.5259 62.8804 49.7611 62.4605Z" fill="url(#paint1_linear_416_498)"/>
<rect x="1.5" y="1.50195" width="106" height="106" rx="53" stroke="url(#paint2_linear_416_498)" stroke-width="3"/>
<defs>
<linearGradient id="paint0_linear_416_498" x1="20.3857" y1="41.8623" x2="92.9953" y2="41.8623" gradientUnits="userSpaceOnUse">
<stop stop-color="#6BCCE1"/>
<stop offset="1" stop-color="#5A429A"/>
</linearGradient>
<linearGradient id="paint1_linear_416_498" x1="19" y1="67.762" x2="92.7298" y2="67.762" gradientUnits="userSpaceOnUse">
<stop stop-color="#6BCCE1"/>
<stop offset="1" stop-color="#5A429A"/>
</linearGradient>
<linearGradient id="paint2_linear_416_498" x1="54.5" y1="3.00195" x2="54.5" y2="106.002" gradientUnits="userSpaceOnUse">
<stop stop-color="#6BCCE1"/>
<stop offset="1" stop-color="#5A429A"/>
</linearGradient>
</defs>
</svg>
