<svg width="74" height="66" viewBox="0 0 74 66" fill="none" xmlns="http://www.w3.org/2000/svg">
<path d="M62.4743 1.61685C62.1497 1.52147 61.7944 1.51651 61.4519 1.51527C49.1053 1.46448 36.7574 1.41493 24.4108 1.36414C17.8023 1.33689 11.6271 1.88567 6.91132 7.0006C2.7272 11.5395 0.584018 18.027 1.66392 24.1528C2.97002 31.5619 9.06728 37.964 16.454 39.3489C18.7697 39.7825 21.1442 39.7565 23.4983 39.6821C24.6523 39.645 25.8332 39.5917 26.9016 39.1532C27.9201 38.7345 28.7687 37.9937 29.5956 37.2665C33.9062 33.4758 38.2168 29.6852 42.5275 25.8933C42.9837 25.4919 43.4745 24.8279 43.0975 24.351C42.7499 23.91 42.0495 24.1453 41.5562 24.4154C39.5702 25.5068 37.583 26.5969 35.597 27.6883C34.9094 28.0661 33.7388 28.2284 33.6263 27.4529C33.5586 26.9883 34.0251 26.5535 33.9126 26.0977C33.7937 25.6182 33.1675 25.5167 32.6729 25.5142C29.3732 25.4944 26.0722 25.4733 22.7724 25.4535C20.9845 25.4423 19.1416 25.4213 17.4943 24.7238C15.847 24.0277 14.4259 22.4779 14.4438 20.6867C14.4617 18.9127 15.8866 17.4002 17.525 16.7238C19.1634 16.0474 20.9883 16.0363 22.7596 16.035C32.8787 16.0264 42.9978 16.0177 53.1169 16.009C54.46 16.0078 55.8441 15.9991 57.0812 15.4751C58.0755 15.0539 58.9061 14.328 59.7164 13.6145C64.3261 9.55868 68.9345 5.50291 73.5442 1.44714C73.7384 1.27619 73.9429 1.08665 73.9889 0.831464C74.0643 0.411517 73.6375 0.038643 73.2132 0.00395715C72.7889 -0.0307287 72.3851 0.168714 72.0055 0.363203C69.5735 1.6119 67.1402 2.85935 64.7082 4.10804C64.3197 4.30749 63.8992 4.51312 63.4647 4.45614C63.0315 4.39916 62.6251 3.94948 62.7861 3.54192C62.8794 3.30407 63.1261 3.16037 63.2513 2.93615C63.4788 2.52983 63.213 1.99096 62.8104 1.75807C62.7018 1.69613 62.5893 1.6503 62.4743 1.61685Z" fill="url(#paint0_linear_335_567)"/>
<path d="M30.7611 40.4605C30.8761 40.2561 31.0307 40.0628 31.1931 39.9229C34.0749 37.4391 36.8826 34.8154 39.8616 32.4493C42.1671 30.6196 44.1378 28.0132 46.7832 26.6716C48.7321 25.6831 50.9903 25.5431 53.1757 25.5245C56.6773 25.496 60.2621 25.7537 63.4788 27.1386C68.1997 29.1715 71.7218 33.5939 73.0624 38.5614C74.403 43.529 73.6567 48.9486 71.4125 53.5767C69.9198 56.6551 67.7115 59.477 64.7363 61.1618C60.8397 63.3693 56.1291 63.4089 51.651 63.3903C38.3613 63.3346 25.0715 63.2801 11.7817 63.2243C12.4501 62.8453 12.0731 61.6907 11.3421 61.4541C10.6111 61.2175 9.83281 61.5668 9.14398 61.9088C6.53689 63.1996 3.93108 64.4904 1.32399 65.7812C0.943151 65.9695 0.431957 66.1392 0.140577 65.8295C-0.224927 65.4418 0.192974 64.8323 0.589149 64.4755C4.16367 61.2733 7.73947 58.071 11.314 54.8688C13.415 52.9871 15.5863 51.062 18.2381 50.1056C20.9308 49.1344 23.8753 49.2484 26.7367 49.3475C36.1925 49.6745 45.6598 49.7006 55.1169 49.4268C56.3898 49.3896 57.7662 49.3103 58.7464 48.4952C59.7969 47.6219 60.0985 46.1366 60.1343 44.769C60.1777 43.1425 59.8544 41.3475 58.5943 40.3205C57.4122 39.3567 55.7495 39.3307 54.2262 39.3505C50.5443 39.3989 46.8624 39.4472 43.1806 39.4955C42.677 39.5017 42.1441 39.5004 41.716 39.2378C41.2879 38.974 41.0425 38.3459 41.3556 37.952C41.5422 37.7166 41.8847 37.6076 41.9946 37.3276C42.1326 36.9783 41.7837 36.5918 41.4105 36.5435C41.0374 36.4951 40.6783 36.6723 40.3434 36.8457C37.4386 38.3484 34.535 39.8498 31.6301 41.3524C31.3937 41.4751 31.1202 41.6002 30.8723 41.5048C30.4646 41.3475 30.5259 40.8804 30.7611 40.4605Z" fill="url(#paint1_linear_335_567)"/>
<defs>
<linearGradient id="paint0_linear_335_567" x1="1.38572" y1="19.8623" x2="73.9953" y2="19.8623" gradientUnits="userSpaceOnUse">
<stop stop-color="#6BCCE1"/>
<stop offset="1" stop-color="#5A429A"/>
</linearGradient>
<linearGradient id="paint1_linear_335_567" x1="4.93094e-05" y1="45.762" x2="73.7298" y2="45.762" gradientUnits="userSpaceOnUse">
<stop stop-color="#6BCCE1"/>
<stop offset="1" stop-color="#5A429A"/>
</linearGradient>
</defs>
</svg>
