<svg width="30" height="30" viewBox="0 0 30 30" fill="none" xmlns="http://www.w3.org/2000/svg">
<g clip-path="url(#clip0_613_1802)">
<path d="M15 30C17.9667 30 20.8668 29.1203 23.3335 27.472C25.8003 25.8238 27.7229 23.4811 28.8582 20.7403C29.9935 17.9994 30.2906 14.9834 29.7118 12.0737C29.133 9.16394 27.7044 6.49119 25.6066 4.3934C23.5088 2.29562 20.8361 0.867006 17.9264 0.288228C15.0166 -0.290551 12.0006 0.00649929 9.25975 1.14181C6.51886 2.27713 4.17618 4.19972 2.52796 6.66645C0.879734 9.13319 0 12.0333 0 15C0.00430135 18.9769 1.58603 22.7897 4.39815 25.6019C7.21026 28.414 11.0231 29.9957 15 30ZM15 6.25001C15.3708 6.25001 15.7333 6.35997 16.0417 6.566C16.35 6.77203 16.5904 7.06486 16.7323 7.40747C16.8742 7.75009 16.9113 8.12709 16.839 8.4908C16.7666 8.85452 16.588 9.18861 16.3258 9.45083C16.0636 9.71306 15.7295 9.89163 15.3658 9.96398C15.0021 10.0363 14.6251 9.9992 14.2825 9.85728C13.9399 9.71537 13.647 9.47504 13.441 9.1667C13.235 8.85836 13.125 8.49585 13.125 8.12501C13.125 7.62773 13.3225 7.15081 13.6742 6.79918C14.0258 6.44755 14.5027 6.25001 15 6.25001ZM13.75 12.5H15C15.663 12.5 16.2989 12.7634 16.7678 13.2322C17.2366 13.7011 17.5 14.337 17.5 15V22.5C17.5 22.8315 17.3683 23.1495 17.1339 23.3839C16.8995 23.6183 16.5815 23.75 16.25 23.75C15.9185 23.75 15.6005 23.6183 15.3661 23.3839C15.1317 23.1495 15 22.8315 15 22.5V15H13.75C13.4185 15 13.1005 14.8683 12.8661 14.6339C12.6317 14.3995 12.5 14.0815 12.5 13.75C12.5 13.4185 12.6317 13.1005 12.8661 12.8661C13.1005 12.6317 13.4185 12.5 13.75 12.5Z" fill="#5A84FF"/>
</g>
<defs>
<clipPath id="clip0_613_1802">
<rect width="30" height="30" fill="white"/>
</clipPath>
</defs>
</svg>
