<svg width="25" height="25" viewBox="0 0 25 25" fill="none" xmlns="http://www.w3.org/2000/svg">
<path d="M11.9792 16.6667C11.5648 16.6667 11.1673 16.8313 10.8743 17.1243C10.5813 17.4173 10.4167 17.8148 10.4167 18.2292V19.0625C10.4167 19.8084 10.1204 20.5238 9.59291 21.0512C9.06546 21.5787 8.35009 21.875 7.60417 21.875H5.9375C5.19158 21.875 4.47621 21.5787 3.94876 21.0512C3.42132 20.5238 3.125 19.8084 3.125 19.0625V5.9375C3.125 5.19158 3.42132 4.47621 3.94876 3.94876C4.47621 3.42132 5.19158 3.125 5.9375 3.125H7.60417C8.35009 3.125 9.06546 3.42132 9.59291 3.94876C10.1204 4.47621 10.4167 5.19158 10.4167 5.9375V6.77083C10.4167 7.18523 10.5813 7.58266 10.8743 7.87569C11.1673 8.16871 11.5648 8.33333 11.9792 8.33333C12.3936 8.33333 12.791 8.16871 13.084 7.87569C13.377 7.58266 13.5417 7.18523 13.5417 6.77083V5.9375C13.54 4.36328 12.9139 2.85402 11.8008 1.74088C10.6876 0.627742 9.17838 0.00165446 7.60417 0L5.9375 0C4.36329 0.00165446 2.85402 0.627742 1.74088 1.74088C0.627742 2.85402 0.00165446 4.36328 0 5.9375L0 19.0625C0.00165446 20.6367 0.627742 22.146 1.74088 23.2591C2.85402 24.3723 4.36329 24.9983 5.9375 25H7.60417C9.17838 24.9983 10.6876 24.3723 11.8008 23.2591C12.9139 22.146 13.54 20.6367 13.5417 19.0625V18.2292C13.5417 17.8148 13.377 17.4173 13.084 17.1243C12.791 16.8313 12.3936 16.6667 11.9792 16.6667Z" fill="#3165FF" fill-opacity="0.8"/>
<path d="M23.5009 9.92201L18.7238 5.14492C18.5787 4.99985 18.4064 4.88479 18.2168 4.80631C18.0272 4.72782 17.824 4.68745 17.6188 4.6875C17.4135 4.68755 17.2104 4.72801 17.0208 4.80659C16.8312 4.88516 16.659 5.00031 16.5139 5.14544C16.2209 5.43856 16.0564 5.83607 16.0565 6.2505C16.0565 6.45571 16.097 6.6589 16.1756 6.84847C16.2542 7.03804 16.3693 7.21027 16.5144 7.35534L20.0676 10.9085L7.29151 10.9376C6.8771 10.9376 6.47968 11.1023 6.18665 11.3953C5.89362 11.6883 5.729 12.0857 5.729 12.5001C5.729 12.9145 5.89362 13.312 6.18665 13.605C6.47968 13.898 6.8771 14.0626 7.29151 14.0626L20.1228 14.0335L16.5113 17.6449C16.2182 17.9379 16.0535 18.3353 16.0534 18.7498C16.0533 19.1642 16.2178 19.5617 16.5108 19.8548C16.8038 20.1479 17.2012 20.3127 17.6156 20.3128C18.0301 20.3129 18.4276 20.1483 18.7207 19.8554L23.4978 15.0783C24.1807 14.3943 24.5646 13.4674 24.5652 12.5008C24.5657 11.5342 24.183 10.6068 23.5009 9.92201Z" fill="#6BC87F" fill-opacity="0.8"/>
</svg>
