<svg width="25" height="25" viewBox="0 0 25 25" fill="none" xmlns="http://www.w3.org/2000/svg">
<g clip-path="url(#clip0_614_1825)">
<path d="M19.7917 3.125H5.20833C3.8275 3.12665 2.50371 3.67592 1.52731 4.65231C0.550919 5.62871 0.00165402 6.95251 0 8.33333H25C24.9983 6.95251 24.4491 5.62871 23.4727 4.65231C22.4963 3.67592 21.1725 3.12665 19.7917 3.125Z" fill="#3165FF" fill-opacity="0.8"/>
<path d="M0 16.667C0.00165402 18.0478 0.550919 19.3716 1.52731 20.348C2.50371 21.3244 3.8275 21.8737 5.20833 21.8753H19.7917C21.1725 21.8737 22.4963 21.3244 23.4727 20.348C24.4491 19.3716 24.9983 18.0478 25 16.667V10.417H0V16.667ZM7.29166 16.1462C7.29166 16.4552 7.20003 16.7573 7.02834 17.0142C6.85665 17.2712 6.61262 17.4715 6.32711 17.5897C6.0416 17.708 5.72743 17.7389 5.42434 17.6786C5.12124 17.6183 4.84283 17.4695 4.62431 17.251C4.40579 17.0325 4.25698 16.7541 4.19669 16.451C4.1364 16.1479 4.16734 15.8337 4.2856 15.5482C4.40387 15.2627 4.60414 15.0187 4.86109 14.847C5.11804 14.6753 5.42013 14.5837 5.72917 14.5837C6.14357 14.5837 6.54099 14.7483 6.83402 15.0413C7.12704 15.3343 7.29166 15.7318 7.29166 16.1462Z" fill="#3165FF" fill-opacity="0.8"/>
</g>
<defs>
<clipPath id="clip0_614_1825">
<rect width="25" height="25" fill="white"/>
</clipPath>
</defs>
</svg>
