<?xml version="1.0" standalone="no"?>
<!DOCTYPE svg PUBLIC "-//W3C//DTD SVG 20010904//EN"
 "http://www.w3.org/TR/2001/REC-SVG-20010904/DTD/svg10.dtd">
<svg version="1.0" xmlns="http://www.w3.org/2000/svg"
 width="512.000000pt" height="512.000000pt" viewBox="0 0 512.000000 512.000000"
 preserveAspectRatio="xMidYMid meet">

<g transform="translate(0.000000,512.000000) scale(0.100000,-0.100000)"
fill="#000000" stroke="none">
<path d="M1339 5106 c-134 -36 -230 -144 -246 -276 l-6 -50 1163 0 1163 0 -7
48 c-15 113 -92 213 -202 264 l-49 23 -885 2 c-680 1 -896 -1 -931 -11z"/>
<path d="M1440 4130 l0 -210 -175 0 -175 0 0 -45 0 -45 175 0 175 0 0 -70 0
-70 40 0 40 0 0 70 0 70 90 0 90 0 0 -60 0 -60 180 0 180 0 0 60 0 60 120 0
120 0 0 -30 c0 -28 -2 -30 -40 -30 l-40 0 0 -40 0 -40 -40 0 c-36 0 -40 -2
-40 -25 0 -22 4 -25 40 -25 l40 0 0 -40 0 -40 -130 0 -130 0 0 40 0 40 -40 0
-40 0 0 -40 0 -40 -40 0 -40 0 0 -45 0 -45 -45 0 -45 0 0 -40 0 -40 210 0 210
0 0 45 0 45 45 0 45 0 0 40 0 40 40 0 40 0 0 65 0 65 40 0 40 0 0 70 0 70 40
0 40 0 0 -60 0 -60 180 0 180 0 0 60 0 60 90 0 90 0 0 -70 0 -70 40 0 40 0 0
70 0 70 165 0 165 0 0 45 0 45 -165 0 -165 0 0 210 0 210 -325 0 -325 0 0 -40
0 -40 285 0 285 0 0 -170 0 -170 -90 0 -90 0 0 75 0 75 -180 0 -180 0 0 -75 0
-75 -40 0 c-36 0 -40 3 -40 25 0 23 -4 25 -40 25 -36 0 -40 -2 -40 -25 l0 -25
-120 0 -120 0 0 75 0 75 -180 0 -180 0 0 -75 0 -75 -90 0 -90 0 0 170 0 170
285 0 285 0 0 40 0 40 -325 0 -325 0 0 -210z m540 -175 l0 -35 -100 0 -100 0
0 35 0 35 100 0 100 0 0 -35z m760 0 l0 -35 -100 0 -100 0 0 35 0 35 100 0
100 0 0 -35z m-760 -145 c0 -19 -7 -20 -100 -20 -93 0 -100 1 -100 20 0 19 7
20 100 20 93 0 100 -1 100 -20z m760 0 c0 -19 -7 -20 -100 -20 -93 0 -100 1
-100 20 0 19 7 20 100 20 93 0 100 -1 100 -20z"/>
<path d="M2140 4050 c0 -39 1 -40 35 -40 34 0 35 1 35 40 0 39 -1 40 -35 40
-34 0 -35 -1 -35 -40z"/>
<path d="M1600 3601 l0 -41 41 0 40 0 -3 38 c-3 35 -5 37 -40 40 l-38 3 0 -40z"/>
<path d="M2470 3600 l0 -40 40 0 40 0 0 40 0 40 -40 0 -40 0 0 -40z"/>
<path d="M2810 3600 l0 -40 40 0 40 0 0 40 0 40 -40 0 -40 0 0 -40z"/>
<path d="M2300 3470 l0 -80 -80 0 -80 0 0 -85 0 -85 40 0 40 0 0 -80 0 -80 40
0 40 0 0 -45 0 -45 40 0 40 0 0 125 0 125 -40 0 -40 0 0 40 0 40 40 0 40 0 0
85 0 85 45 0 45 0 0 40 0 40 -85 0 -85 0 0 -80z"/>
<path d="M2560 3515 c0 -34 1 -35 40 -35 l40 0 0 -45 0 -45 40 0 40 0 0 40 0
40 45 0 45 0 0 40 0 40 -125 0 -125 0 0 -35z"/>
<path d="M1440 3010 l0 -330 325 0 325 0 0 40 0 40 -285 0 -285 0 0 290 0 290
-40 0 -40 0 0 -330z"/>
<path d="M3000 3050 l0 -280 -290 0 -290 0 0 -40 0 -40 330 0 330 0 0 320 0
320 -40 0 -40 0 0 -280z"/>
<path d="M1700 3130 l0 -180 180 0 180 0 0 180 0 180 -180 0 -180 0 0 -180z
m280 0 l0 -100 -100 0 -100 0 0 100 0 100 100 0 100 0 0 -100z"/>
<path d="M2460 3130 l0 -180 180 0 180 0 0 180 0 180 -180 0 -180 0 0 -180z
m280 0 l0 -100 -100 0 -100 0 0 100 0 100 100 0 100 0 0 -100z"/>
<path d="M2130 3010 l0 -40 40 0 40 0 0 40 0 40 -40 0 -40 0 0 -40z"/>
<path d="M2220 2830 l0 -40 40 0 40 0 0 40 0 40 -40 0 -40 0 0 -40z"/>
<path d="M1092 1358 c3 -178 4 -185 31 -236 35 -67 90 -122 153 -153 l49 -24
910 -3 c500 -1 915 0 922 2 8 3 -3 33 -32 89 -60 117 -79 210 -72 356 2 64 8
124 12 134 7 16 -44 17 -985 17 l-992 0 4 -182z m1393 -133 l0 -50 -207 -3
-208 -2 0 55 0 55 208 -2 207 -3 0 -50z"/>
</g>
</svg>
