<?xml version="1.0" standalone="no"?>
<!DOCTYPE svg PUBLIC "-//W3C//DTD SVG 20010904//EN"
 "http://www.w3.org/TR/2001/REC-SVG-20010904/DTD/svg10.dtd">
<svg version="1.0" xmlns="http://www.w3.org/2000/svg"
 width="512.000000pt" height="512.000000pt" viewBox="0 0 512.000000 512.000000"
 preserveAspectRatio="xMidYMid meet">

<g transform="translate(0.000000,512.000000) scale(0.100000,-0.100000)"
fill="#000" stroke="none">
<path d="M0 4520 l0 -600 150 0 150 0 0 450 0 450 450 0 450 0 0 150 0 150
-600 0 -600 0 0 -600z"/>
<path d="M3920 4970 l0 -150 450 0 450 0 0 -450 0 -450 150 0 150 0 0 600 0
600 -600 0 -600 0 0 -150z"/>
<path d="M610 3770 l0 -750 750 0 750 0 0 450 0 450 150 0 150 0 0 -300 0
-300 150 0 150 0 0 300 0 300 -150 0 -150 0 0 150 0 150 150 0 150 0 0 150 0
150 -150 0 -150 0 0 -150 0 -150 -150 0 -150 0 0 150 0 150 -750 0 -750 0 0
-750z m1200 0 l0 -450 -450 0 -450 0 0 450 0 450 450 0 450 0 0 -450z"/>
<path d="M1210 3770 l0 -150 150 0 150 0 0 150 0 150 -150 0 -150 0 0 -150z"/>
<path d="M3010 3770 l0 -750 300 0 300 0 0 -150 0 -150 -450 0 -450 0 0 150 0
150 -150 0 -150 0 0 -300 0 -300 -150 0 -150 0 0 150 0 150 -750 0 -750 0 0
-150 0 -150 300 0 300 0 0 -150 0 -150 -150 0 -150 0 0 -150 0 -150 -150 0
-150 0 0 -300 0 -300 150 0 150 0 0 -150 0 -150 -150 0 -150 0 0 -150 0 -150
150 0 150 0 0 150 0 150 150 0 150 0 0 -150 0 -150 750 0 750 0 0 150 0 150
-150 0 -150 0 0 150 0 150 -150 0 -150 0 0 -150 0 -150 -300 0 -300 0 0 150 0
150 150 0 150 0 0 150 0 150 150 0 150 0 0 300 0 300 150 0 150 0 0 150 0 150
600 0 600 0 0 -150 0 -150 -450 0 -450 0 0 -150 0 -150 -150 0 -150 0 0 -150
0 -150 150 0 150 0 0 -150 0 -150 150 0 150 0 0 -300 0 -300 750 0 750 0 0
750 0 750 -300 0 -300 0 0 150 0 150 300 0 300 0 0 150 0 150 -300 0 -300 0 0
150 0 150 300 0 300 0 0 750 0 750 -750 0 -750 0 0 -750z m1200 0 l0 -450
-450 0 -450 0 0 450 0 450 450 0 450 0 0 -450z m-300 -1200 l0 -150 -150 0
-150 0 0 150 0 150 150 0 150 0 0 -150z m-1800 -300 l0 -150 -150 0 -150 0 0
-300 0 -300 -150 0 -150 0 0 450 0 450 300 0 300 0 0 -150z m-900 -750 l0
-300 -150 0 -150 0 0 300 0 300 150 0 150 0 0 -300z m1800 150 l0 -150 -150 0
-150 0 0 150 0 150 150 0 150 0 0 -150z m1200 -300 l0 -450 -450 0 -450 0 0
450 0 450 450 0 450 0 0 -450z"/>
<path d="M3610 3770 l0 -150 150 0 150 0 0 150 0 150 -150 0 -150 0 0 -150z"/>
<path d="M3610 1370 l0 -150 150 0 150 0 0 150 0 150 -150 0 -150 0 0 -150z"/>
<path d="M0 600 l0 -600 600 0 600 0 0 150 0 150 -450 0 -450 0 0 450 0 450
-150 0 -150 0 0 -600z"/>
<path d="M4820 750 l0 -450 -450 0 -450 0 0 -150 0 -150 600 0 600 0 0 600 0
600 -150 0 -150 0 0 -450z"/>
</g>
</svg>
