<?xml version="1.0" standalone="no"?>
<!DOCTYPE svg PUBLIC "-//W3C//DTD SVG 20010904//EN"
 "http://www.w3.org/TR/2001/REC-SVG-20010904/DTD/svg10.dtd">
<svg version="1.0" xmlns="http://www.w3.org/2000/svg"
 width="512.000000pt" height="512.000000pt" viewBox="0 0 512.000000 512.000000"
 preserveAspectRatio="xMidYMid meet">

<g transform="translate(0.000000,512.000000) scale(0.100000,-0.100000)"
fill="#000" stroke="none">
<path d="M92 5103 c-18 -9 -43 -30 -55 -47 l-22 -31 -3 -650 c-2 -635 -2 -651
18 -683 58 -94 195 -96 252 -3 l23 36 3 548 3 547 581 0 c571 0 582 0 625 21
106 51 110 197 7 256 l-39 23 -680 0 c-606 0 -684 -2 -713 -17z"/>
<path d="M3686 5097 c-103 -59 -98 -205 9 -257 40 -19 62 -20 578 -20 l536 0
3 -592 3 -593 23 -36 c57 -93 195 -91 252 3 19 32 20 52 20 724 l0 691 -23 34
c-48 72 -19 69 -727 69 l-635 0 -39 -23z"/>
<path d="M2515 4515 c-47 -16 -90 -64 -99 -107 -3 -17 -6 -314 -6 -661 0 -610
1 -632 20 -672 38 -79 141 -109 211 -62 72 48 69 17 69 748 l0 656 -22 33
c-46 67 -105 89 -173 65z"/>
<path d="M675 4500 c-68 -45 -65 -13 -65 -746 l0 -661 23 -34 c48 -72 17 -70
739 -67 636 3 647 3 675 24 65 48 63 21 63 742 0 707 2 679 -55 732 l-27 25
-661 3 c-646 2 -663 2 -692 -18z m1143 -742 l2 -468 -460 0 -460 0 0 463 c0
255 3 467 7 470 3 4 209 6 457 5 l451 -3 3 -467z"/>
<path d="M1214 3946 c-17 -8 -34 -21 -38 -31 -3 -9 -6 -83 -6 -164 0 -197 -6
-191 187 -191 127 0 143 2 167 21 l26 20 0 150 c0 83 -5 159 -10 169 -6 11
-27 24 -48 30 -54 15 -240 12 -278 -4z"/>
<path d="M3085 4501 c-17 -10 -40 -31 -50 -47 -19 -28 -20 -53 -23 -684 l-2
-655 22 -44 c44 -85 6 -81 733 -81 727 0 689 -4 733 80 l22 44 0 646 c0 609
-1 647 -19 680 -10 19 -33 45 -51 58 l-33 22 -651 0 c-616 0 -653 -1 -681 -19z
m1135 -741 l0 -470 -455 0 -455 0 0 470 0 470 455 0 455 0 0 -470z"/>
<path d="M3595 3925 c-24 -23 -25 -28 -25 -172 1 -154 4 -169 47 -191 28 -15
264 -16 296 -1 39 18 47 50 47 189 0 73 -5 140 -11 153 -18 39 -50 47 -195 47
-130 0 -136 -1 -159 -25z"/>
<path d="M707 2706 c-68 -25 -97 -66 -97 -139 0 -54 31 -105 80 -129 52 -26
398 -26 449 0 48 24 73 62 78 119 4 39 0 55 -19 82 -50 73 -58 76 -266 78
-139 2 -197 -1 -225 -11z"/>
<path d="M1580 2698 c-54 -28 -83 -75 -83 -135 0 -50 21 -85 73 -120 31 -22
42 -23 229 -23 167 0 201 3 230 18 101 51 108 195 12 254 -34 21 -49 23 -226
26 -182 3 -192 2 -235 -20z"/>
<path d="M2516 2710 c-38 -12 -75 -47 -92 -87 -12 -27 -14 -196 -14 -955 0
-910 0 -922 21 -964 38 -79 149 -107 218 -57 55 41 61 70 61 289 l0 202 144 4
c160 4 177 9 224 79 44 64 19 161 -53 206 -25 15 -56 19 -173 21 l-143 4 3
141 3 142 307 3 306 2 4 -152 c3 -170 13 -201 74 -239 30 -18 53 -19 423 -19
l391 0 0 -210 0 -210 -583 0 c-661 0 -630 4 -675 -81 -38 -71 -20 -140 52
-193 27 -21 36 -21 716 -21 680 0 689 0 716 21 15 11 37 33 48 48 20 27 21 39
21 436 0 397 -1 409 -21 436 -11 15 -33 37 -48 48 -26 20 -41 21 -416 24
l-388 3 -4 147 c-4 172 -15 202 -88 240 -44 22 -49 22 -442 22 l-398 0 0 190
0 190 565 0 565 0 0 -122 c0 -105 3 -128 20 -156 61 -100 207 -96 261 8 15 28
19 57 19 152 l0 118 139 0 c127 0 141 2 171 23 92 62 90 181 -4 251 -27 21
-35 21 -964 23 -515 1 -950 -2 -966 -7z"/>
<path d="M690 2132 c-19 -9 -44 -31 -56 -49 -20 -31 -21 -43 -27 -670 -4 -362
-3 -654 2 -676 12 -51 35 -83 74 -104 30 -17 79 -18 679 -18 640 0 647 0 675
21 15 11 38 36 51 54 l22 33 0 656 c0 745 4 705 -80 749 l-44 22 -631 0 c-580
0 -633 -1 -665 -18z m1120 -752 l0 -470 -455 0 -455 0 0 470 0 470 455 0 455
0 0 -470z"/>
<path d="M1196 1559 l-26 -20 0 -159 0 -159 27 -21 c26 -20 37 -21 171 -18
190 4 182 -4 182 200 0 145 -1 150 -25 173 -23 24 -29 25 -163 25 -126 0 -142
-2 -166 -21z"/>
<path d="M82 1570 c-18 -11 -41 -34 -52 -52 -19 -32 -20 -52 -20 -716 0 -751
-2 -728 61 -773 l34 -24 639 -3 c634 -2 639 -2 683 19 49 24 83 77 83 130 0
49 -38 106 -85 129 -40 19 -62 20 -583 20 l-542 0 0 596 c0 581 -1 598 -20
629 -38 62 -134 84 -198 45z"/>
<path d="M4890 1481 c-19 -10 -44 -34 -55 -52 -19 -33 -20 -55 -23 -581 l-3
-548 -582 0 -583 0 -44 -23 c-57 -29 -83 -75 -77 -138 5 -56 34 -101 81 -123
30 -14 107 -16 713 -16 641 0 680 1 713 19 19 10 44 30 55 45 20 27 20 42 23
679 2 637 2 653 -18 685 -42 68 -129 91 -200 53z"/>
</g>
</svg>
