<svg width="35" height="30" viewBox="0 0 35 30" fill="none" xmlns="http://www.w3.org/2000/svg">
<path d="M1.67395 23.75C2.53558 25.2454 4.44637 25.7592 5.94178 24.8976C5.94281 24.897 5.94378 24.8964 5.94481 24.8958L6.40833 24.6281C7.28333 25.3767 8.2891 25.9573 9.37499 26.3406V26.875C9.37499 28.6009 10.7741 30 12.5 30C14.2259 30 15.625 28.6009 15.625 26.875V26.3406C16.711 25.9567 17.7168 25.3754 18.5916 24.626L19.0573 24.8948C20.553 25.7577 22.4652 25.2447 23.3281 23.7489C24.1911 22.2532 23.6781 20.341 22.1823 19.4781L21.7198 19.2114C21.928 18.0786 21.928 16.9172 21.7198 15.7843L22.1823 15.5177C23.678 14.6547 24.1911 12.7426 23.3281 11.2468C22.4652 9.75107 20.5531 9.23804 19.0573 10.101L18.5937 10.3687C17.7179 9.621 16.7114 9.0415 15.625 8.65938V8.125C15.625 6.39912 14.2259 5 12.5 5C10.7741 5 9.37499 6.39912 9.37499 8.125V8.65938C8.28895 9.04331 7.28314 9.62456 6.40833 10.374L5.94271 10.1042C4.44691 9.24121 2.5348 9.75425 1.67186 11.25C0.808915 12.7458 1.3219 14.6579 2.81771 15.5208L3.28021 15.7875C3.072 16.9204 3.072 18.0817 3.28021 19.2146L2.81771 19.4812C1.32605 20.3465 0.814726 22.2549 1.67395 23.75ZM12.5 13.3333C14.8012 13.3333 16.6666 15.1988 16.6666 17.5C16.6666 19.8012 14.8012 21.6667 12.5 21.6667C10.1988 21.6667 8.33333 19.8012 8.33333 17.5C8.33333 15.1988 10.1988 13.3333 12.5 13.3333Z" fill="#3165FF" fill-opacity="0.8"/>
<path d="M23.8037 9C24.2172 9.7178 25.1344 9.96441 25.8522 9.55083C25.8527 9.55055 25.8532 9.55027 25.8537 9.54998L26.0762 9.42148C26.4962 9.78082 26.9789 10.0595 27.5001 10.2435V10.5C27.5001 11.3284 28.1717 12 29.0002 12C29.8286 12 30.5002 11.3284 30.5002 10.5V10.2435C31.0215 10.0592 31.5042 9.78021 31.9241 9.42049L32.1476 9.54949C32.8656 9.9637 33.7834 9.71747 34.1977 8.99948C34.6119 8.28152 34.3656 7.36369 33.6476 6.94948L33.4256 6.82148C33.5256 6.27771 33.5256 5.72027 33.4256 5.17648L33.6476 5.04848C34.3656 4.63427 34.6119 3.71646 34.1977 2.99848C33.7834 2.28052 32.8656 2.03426 32.1476 2.44847L31.9252 2.57698C31.5047 2.21808 31.0216 1.93992 30.5002 1.7565V1.5C30.5002 0.671578 29.8286 0 29.0002 0C28.1717 0 27.5001 0.671578 27.5001 1.5V1.7565C26.9789 1.94079 26.4961 2.21979 26.0762 2.57951L25.8527 2.45002C25.1347 2.03578 24.2169 2.28204 23.8026 3C23.3884 3.71796 23.6347 4.6358 24.3527 5.05001L24.5747 5.178C24.4747 5.72177 24.4747 6.27921 24.5747 6.82301L24.3527 6.951C23.6367 7.36631 23.3912 8.28234 23.8037 9ZM29.0002 4.00001C30.1047 4.00001 31.0001 4.89544 31.0001 6C31.0001 7.10456 30.1047 7.99999 29.0002 7.99999C27.8956 7.99999 27.0002 7.10456 27.0002 6C27.0002 4.89544 27.8956 4.00001 29.0002 4.00001Z" fill="#6BC87F" fill-opacity="0.8"/>
</svg>
