<svg width="20" height="21" viewBox="0 0 20 21" fill="none" xmlns="http://www.w3.org/2000/svg">
<g clip-path="url(#clip0_902_3035)">
<path d="M7.5 10.084C10.2614 10.084 12.5 7.8454 12.5 5.08398C12.5 2.32256 10.2614 0.0839844 7.5 0.0839844C4.73857 0.0839844 2.5 2.32256 2.5 5.08398C2.5 7.8454 4.73857 10.084 7.5 10.084Z" fill="#61C877"/>
<path d="M10.8692 11.751H4.13083C3.03567 11.7523 1.98575 12.1879 1.21135 12.9623C0.436959 13.7367 0.00132319 14.7867 0 15.8818L0 20.0843H15V15.8818C14.9987 14.7867 14.563 13.7367 13.7886 12.9623C13.0142 12.1879 11.9643 11.7523 10.8692 11.751Z" fill="#61C877"/>
</g>
<path d="M15.9373 11.4557C15.767 11.4557 15.6036 11.3792 15.4833 11.2428L14.1108 9.69062C13.9631 9.52349 13.9631 9.25257 14.1108 9.08544C14.2585 8.91836 14.498 8.91836 14.6457 9.08544L15.9373 10.5466L19.3543 6.68097C19.502 6.51389 19.7415 6.51389 19.8892 6.68097C20.0369 6.8481 20.0369 7.11902 19.8892 7.28615L16.3913 11.2428C16.271 11.3792 16.1076 11.4557 15.9373 11.4557Z" fill="#61C877"/>
<defs>
<clipPath id="clip0_902_3035">
<rect width="20" height="20" fill="white" transform="translate(0 0.0839844)"/>
</clipPath>
</defs>
</svg>
