<svg width="20" height="21" viewBox="0 0 20 21" fill="none" xmlns="http://www.w3.org/2000/svg">
<g clip-path="url(#clip0_655_4305)">
<path d="M7.5 10.084C10.2614 10.084 12.5 7.8454 12.5 5.08398C12.5 2.32256 10.2614 0.0839844 7.5 0.0839844C4.73857 0.0839844 2.5 2.32256 2.5 5.08398C2.5 7.8454 4.73857 10.084 7.5 10.084Z" fill="#3165FF" fill-opacity="0.8"/>
<path d="M10.8692 11.751H4.13083C3.03567 11.7523 1.98575 12.1879 1.21135 12.9623C0.436959 13.7367 0.00132319 14.7867 0 15.8818L0 20.0843H15V15.8818C14.9987 14.7867 14.563 13.7367 13.7886 12.9623C13.0142 12.1879 11.9643 11.7523 10.8692 11.751Z" fill="#3165FF" fill-opacity="0.8"/>
<path d="M17.4997 8.41699V5.91699H15.833V8.41699H13.333V10.0837H15.833V12.5837H17.4997V10.0837H19.9997V8.41699H17.4997Z" fill="#3165FF" fill-opacity="0.8"/>
</g>
<defs>
<clipPath id="clip0_655_4305">
<rect width="20" height="20" fill="white" transform="translate(0 0.0839844)"/>
</clipPath>
</defs>
</svg>
