<svg width="15" height="15" viewBox="0 0 15 15" fill="none" xmlns="http://www.w3.org/2000/svg">
<path d="M7.49999 3.12498C8.36293 3.12498 9.06248 2.42543 9.06248 1.56249C9.06248 0.699551 8.36293 0 7.49999 0C6.63705 0 5.9375 0.699551 5.9375 1.56249C5.9375 2.42543 6.63705 3.12498 7.49999 3.12498Z" fill="black" fill-opacity="0.5"/>
<path d="M7.49999 9.06248C8.36293 9.06248 9.06248 8.36293 9.06248 7.49999C9.06248 6.63705 8.36293 5.9375 7.49999 5.9375C6.63705 5.9375 5.9375 6.63705 5.9375 7.49999C5.9375 8.36293 6.63705 9.06248 7.49999 9.06248Z" fill="black" fill-opacity="0.5"/>
<path d="M7.49999 15C8.36293 15 9.06248 14.3004 9.06248 13.4375C9.06248 12.5746 8.36293 11.875 7.49999 11.875C6.63705 11.875 5.9375 12.5746 5.9375 13.4375C5.9375 14.3004 6.63705 15 7.49999 15Z" fill="black" fill-opacity="0.5"/>
</svg>
