<svg width="20" height="20" viewBox="0 0 20 20" fill="#000" xmlns="http://www.w3.org/2000/svg">
<g clip-path="url(#clip0_533_1046)">
<path d="M11.115 0.694497C10.8089 0.419028 10.4118 0.266602 10 0.266602C9.58823 0.266602 9.19104 0.419028 8.885 0.694497L0 8.69116V17.3578C0 18.0651 0.280951 18.7433 0.781048 19.2434C1.28115 19.7435 1.95942 20.0245 2.66667 20.0245H17.3333C18.0406 20.0245 18.7188 19.7435 19.2189 19.2434C19.719 18.7433 20 18.0651 20 17.3578V8.69116L11.115 0.694497ZM12.5 18.3553H7.5V14.167C7.5 13.504 7.76339 12.8681 8.23223 12.3992C8.70107 11.9304 9.33696 11.667 10 11.667C10.663 11.667 11.2989 11.9304 11.7678 12.3992C12.2366 12.8681 12.5 13.504 12.5 14.167V18.3553ZM18.3333 17.3553C18.3333 17.6205 18.228 17.8749 18.0404 18.0624C17.8529 18.25 17.5985 18.3553 17.3333 18.3553H14.1667V14.167C14.1667 13.0619 13.7277 12.0021 12.9463 11.2207C12.1649 10.4393 11.1051 10.0003 10 10.0003C8.89493 10.0003 7.83512 10.4393 7.05372 11.2207C6.27232 12.0021 5.83333 13.0619 5.83333 14.167V18.3553H2.66667C2.40145 18.3553 2.1471 18.25 1.95956 18.0624C1.77202 17.8749 1.66667 17.6205 1.66667 17.3553V9.43283L10 1.93283L18.3333 9.43283V17.3553Z" fill="#000"/>
</g>
<defs>
<clipPath id="clip0_533_1046">
<rect width="20" height="20" fill="#000"/>
</clipPath>
</defs>
</svg>
