<svg width="20" height="20" viewBox="0 0 20 20" fill="#000" xmlns="http://www.w3.org/2000/svg">
<g clip-path="url(#clip0_551_1292)">
<path d="M10 11.667C9.33696 11.667 8.70107 11.9304 8.23223 12.3992C7.76339 12.8681 7.5 13.504 7.5 14.167V20.022H12.5V14.167C12.5 13.504 12.2366 12.8681 11.7678 12.3992C11.2989 11.9304 10.663 11.667 10 11.667Z" fill="#000"/>
<path d="M11.115 0.694498C10.8089 0.419028 10.4118 0.266602 10 0.266602C9.58823 0.266602 9.19105 0.419028 8.885 0.694498L0 8.69116V17.3578C0 18.0651 0.280951 18.7434 0.781048 19.2434C1.28115 19.7435 1.95942 20.0245 2.66667 20.0245H5.83333V14.167C5.83333 13.0619 6.27232 12.0021 7.05372 11.2207C7.83512 10.4393 8.89493 10.0003 10 10.0003C11.1051 10.0003 12.1649 10.4393 12.9463 11.2207C13.7277 12.0021 14.1667 13.0619 14.1667 14.167V20.022H17.3333C18.0406 20.022 18.7188 19.741 19.2189 19.2409C19.719 18.7409 20 18.0626 20 17.3553V8.68866L11.115 0.694498Z" fill="#000"/>
</g>
<defs>
<clipPath id="clip0_551_1292">
<rect width="20" height="20" fill="#000"/>
</clipPath>
</defs>
</svg>
