<svg width="40" height="40" viewBox="0 0 40 40" fill="none" xmlns="http://www.w3.org/2000/svg">
<g clip-path="url(#clip0_617_2072)">
<path d="M19.7007 21.083H13.2993C12.2589 21.0843 11.2615 21.4981 10.5258 22.2338C9.79011 22.9695 9.37626 23.9669 9.375 25.0073V28.9997H23.625V25.0073C23.6237 23.9669 23.2099 22.9695 22.4742 22.2338C21.7385 21.4981 20.7411 21.0843 19.7007 21.083Z" fill="#3165FF"/>
<path d="M16.5 19.5C19.1234 19.5 21.25 17.3733 21.25 14.75C21.25 12.1266 19.1234 10 16.5 10C13.8766 10 11.75 12.1266 11.75 14.75C11.75 17.3733 13.8766 19.5 16.5 19.5Z" fill="#3165FF"/>
</g>
<rect width="1.96209" height="7.84835" rx="0.981043" transform="matrix(0.728795 -0.684732 0.728795 0.684732 23.7051 16.8447)" fill="#3165FF"/>
<rect width="1.96209" height="7.84835" rx="0.981043" transform="matrix(-0.728795 -0.684732 0.728795 -0.684732 25.1357 22.2178)" fill="#3165FF"/>
<circle cx="20" cy="20" r="20" fill="#3165FF" fill-opacity="0.1"/>
<defs>
<clipPath id="clip0_617_2072">
<rect width="19" height="19" fill="white" transform="translate(7 10)"/>
</clipPath>
</defs>
</svg>
