<svg width="40" height="40" viewBox="0 0 40 40" fill="none" xmlns="http://www.w3.org/2000/svg">
<g clip-path="url(#clip0_800_3027)">
<path d="M30.9578 14.6182L23.2413 21.6332C22.3809 22.4134 21.2153 22.8515 20 22.8515C18.7847 22.8515 17.6191 22.4134 16.7587 21.6332L9.04217 14.6182C9.02933 14.7498 9 14.869 9 14.9998V24.9998C9.00146 26.1045 9.48481 27.1635 10.344 27.9446C11.2033 28.7258 12.3682 29.1652 13.5833 29.1665H26.4167C27.6318 29.1652 28.7967 28.7258 29.656 27.9446C30.5152 27.1635 30.9985 26.1045 31 24.9998V14.9998C31 14.869 30.9707 14.7498 30.9578 14.6182Z" fill="#3165FF"/>
<path d="M21.9453 20.4547L30.3181 12.8422C29.9125 12.2308 29.3405 11.7247 28.6571 11.3728C27.9738 11.0209 27.2022 10.835 26.4168 10.833H13.5835C12.7981 10.835 12.0265 11.0209 11.3432 11.3728C10.6598 11.7247 10.0877 12.2308 9.68213 12.8422L18.055 20.4547C18.5716 20.9224 19.271 21.1851 20.0001 21.1851C20.7293 21.1851 21.4287 20.9224 21.9453 20.4547V20.4547Z" fill="#3165FF"/>
</g>
<circle cx="20" cy="20" r="20" fill="#3165FF" fill-opacity="0.1"/>
<defs>
<clipPath id="clip0_800_3027">
<rect width="22" height="20" fill="white" transform="translate(9 10)"/>
</clipPath>
</defs>
</svg>
