<svg width="40" height="40" viewBox="0 0 40 40" fill="none" xmlns="http://www.w3.org/2000/svg">
<circle cx="20" cy="20" r="20" fill="#3165FF" fill-opacity="0.1"/>
<g clip-path="url(#clip0_617_2035)">
<path d="M23.3243 20.5836V18.3336C23.3243 18.1126 23.4121 17.9006 23.5684 17.7443C23.7247 17.5881 23.9366 17.5003 24.1576 17.5003H24.991C25.212 17.5003 25.424 17.4125 25.5802 17.2562C25.7365 17.0999 25.8243 16.8879 25.8243 16.6669V15.8336C25.8243 15.6126 25.9121 15.4006 26.0684 15.2443C26.2247 15.0881 26.4366 15.0003 26.6576 15.0003H28.8951C29.0577 14.9995 29.2166 14.9519 29.3528 14.8632C29.4891 14.7746 29.5969 14.6486 29.6635 14.5003C29.9449 13.8804 30.0532 13.1959 29.9768 12.5194C29.8816 11.8151 29.5319 11.17 28.9936 10.7059C28.4553 10.2418 27.7658 9.9908 27.0551 10.0003C26.0524 10.0003 25.0908 10.3987 24.3818 11.1078L17.7918 17.6961C16.7296 17.4201 15.6128 17.4339 14.5576 17.7361C13.106 18.1466 11.8519 19.0682 11.0266 20.331C10.2013 21.5938 9.86055 23.1124 10.0673 24.6068C10.274 26.1011 11.0142 27.4702 12.1514 28.4615C13.2885 29.4527 14.7458 29.9993 16.2543 30.0003C16.4725 30.0001 16.6906 29.9887 16.9076 29.9661C18.1494 29.8309 19.3226 29.3281 20.2769 28.5221C21.2312 27.7161 21.9232 26.6436 22.2643 25.4419C22.5674 24.3872 22.5809 23.2703 22.3035 22.2086L22.8451 21.6669C23.1332 21.3774 23.3039 20.9915 23.3243 20.5836ZM14.5835 26.6669C14.3363 26.6669 14.0946 26.5936 13.889 26.4563C13.6835 26.3189 13.5232 26.1237 13.4286 25.8953C13.334 25.6669 13.3093 25.4155 13.3575 25.1731C13.4057 24.9306 13.5248 24.7079 13.6996 24.533C13.8744 24.3582 14.0971 24.2392 14.3396 24.1909C14.5821 24.1427 14.8334 24.1675 15.0618 24.2621C15.2902 24.3567 15.4855 24.5169 15.6228 24.7225C15.7602 24.928 15.8335 25.1697 15.8335 25.4169C15.8335 25.7485 15.7018 26.0664 15.4674 26.3008C15.2329 26.5352 14.915 26.6669 14.5835 26.6669Z" fill="#3165FF"/>
</g>
<defs>
<clipPath id="clip0_617_2035">
<rect width="20" height="20" fill="white" transform="translate(10 10)"/>
</clipPath>
</defs>
</svg>
