<svg width="40" height="40" viewBox="0 0 40 40" fill="none" xmlns="http://www.w3.org/2000/svg">
<path d="M20 40C31.0457 40 40 31.0457 40 20C40 8.9543 31.0457 0 20 0C8.9543 0 0 8.9543 0 20C0 31.0457 8.9543 40 20 40Z" fill="#6BC87F" fill-opacity="0.25"/>
<path d="M16.4577 27.219C15.8899 27.2192 15.3455 26.9935 14.9444 26.5918L10.3692 22.0183C9.87693 21.5259 9.87693 20.7276 10.3692 20.2352C10.8617 19.7429 11.6599 19.7429 12.1524 20.2352L16.4577 24.5404L27.8476 13.1505C28.3401 12.6582 29.1383 12.6582 29.6308 13.1505C30.1231 13.6429 30.1231 14.4412 29.6308 14.9336L17.9709 26.5918C17.5698 26.9935 17.0254 27.2192 16.4577 27.219Z" fill="#6BC87F"/>
</svg>
